HIERARCHY
ROOT root
{
	OFFSET 0.000000 0.000000 0.000000
	CHANNELS 6 Xposition Yposition Zposition Zrotation Yrotation Xrotation
	JOINT lhip
	{
		OFFSET 0.058581 -0.082280 -0.017664
		CHANNELS 3 Zrotation Yrotation Xrotation
		JOINT lknee
		{
			OFFSET 0.043451 -0.386469 0.008037
			CHANNELS 3 Zrotation Yrotation Xrotation
			JOINT lankle
			{
				OFFSET -0.014790 -0.426874 -0.037428
				CHANNELS 3 Zrotation Yrotation Xrotation
				JOINT ltoe
				{
					OFFSET 0.041054 -0.060286 0.122042
					CHANNELS 3 Zrotation Yrotation Xrotation
					End Site
					{
						OFFSET 0.000000 0.000000 0.000000
					}
				}
			}
		}
	}
	JOINT rhip
	{
		OFFSET -0.060310 -0.090513 -0.013543
		CHANNELS 3 Zrotation Yrotation Xrotation
		JOINT rknee
		{
			OFFSET -0.043257 -0.383688 -0.004843
			CHANNELS 3 Zrotation Yrotation Xrotation
			JOINT rankle
			{
				OFFSET 0.019056 -0.420046 -0.034562
				CHANNELS 3 Zrotation Yrotation Xrotation
				JOINT rtoe
				{
					OFFSET -0.034840 -0.062106 0.130323
					CHANNELS 3 Zrotation Yrotation Xrotation
					End Site
					{
						OFFSET 0.000000 0.000000 0.000000
					}
				}
			}
		}
	}
	JOINT lowerback
	{
		OFFSET 0.004439 0.124404 -0.038385
		CHANNELS 3 Zrotation Yrotation Xrotation
		JOINT upperback
		{
			OFFSET 0.004488 0.137956 0.026820
			CHANNELS 3 Zrotation Yrotation Xrotation
			JOINT chest
			{
				OFFSET -0.002265 0.056032 0.002855
				CHANNELS 3 Zrotation Yrotation Xrotation
				JOINT lowerneck
				{
					OFFSET -0.013390 0.211636 -0.033468
					CHANNELS 3 Zrotation Yrotation Xrotation
					JOINT upperneck
					{
						OFFSET 0.010113 0.088937 0.050410
						CHANNELS 3 Zrotation Yrotation Xrotation
						End Site
						{
							OFFSET 0.000000 0.000000 0.000000
						}
					}
				}
				JOINT lclavicle
				{
					OFFSET 0.071702 0.114000 -0.018898
					CHANNELS 3 Zrotation Yrotation Xrotation
					JOINT lshoulder
					{
						OFFSET 0.122921 0.045205 -0.019046
						CHANNELS 3 Zrotation Yrotation Xrotation
						JOINT lelbow
						{
							OFFSET 0.255332 -0.015649 -0.022946
							CHANNELS 3 Zrotation Yrotation Xrotation
							JOINT lwrist
							{
								OFFSET 0.265709 0.012698 -0.007375
								CHANNELS 3 Zrotation Yrotation Xrotation
								End Site
								{
									OFFSET 0.000000 0.000000 0.000000
								}
							}
						}
					}
				}
				JOINT rclavicle
				{
					OFFSET -0.082954 0.112472 -0.023707
					CHANNELS 3 Zrotation Yrotation Xrotation
					JOINT rshoulder
					{
						OFFSET -0.113228 0.046853 -0.008472
						CHANNELS 3 Zrotation Yrotation Xrotation
						JOINT relbow
						{
							OFFSET -0.260127 -0.014369 -0.031269
							CHANNELS 3 Zrotation Yrotation Xrotation
							JOINT rwrist
							{
								OFFSET -0.269108 0.006794 -0.006027
								CHANNELS 3 Zrotation Yrotation Xrotation
								End Site
								{
									OFFSET 0.000000 0.000000 0.000000
								}
							}
						}
					}
				}
			}
		}
	}
}
MOTION
Frames: 16
Frame Time: 0.033333
0.584673 0.268973 0.934682 -84.245431 4.377521 103.162318 11.205319 1.743993 -41.577140 2.177065 0.768303 64.078547 11.477885 42.037909 -17.475671 0.000000 -0.000000 0.000000 11.097882 16.163000 -28.660844 2.706988 -2.316301 36.850115 -6.944057 -29.276374 -25.621561 0.000000 -0.000000 0.000000 9.569009 1.735103 8.826694 3.730601 -0.166066 5.266447 -0.240878 3.007258 -10.505432 -6.084956 -1.510537 -5.419761 4.380304 1.915776 -11.840860 -17.647645 3.905530 -2.050878 -23.321684 -6.290705 -5.769666 2.692099 -15.618626 -6.564050 -26.816653 10.683152 9.618289 12.330565 0.711488 -0.980438 28.247089 9.750951 -5.591456 -3.905848 2.761214 7.370250 10.712269 -9.569028 7.405728 
0.555804 0.266300 0.932355 -90.771213 5.457576 102.639622 9.652228 2.101453 -49.830274 6.176974 4.709855 64.919230 11.093251 39.860185 -20.458424 0.000000 -0.000000 0.000000 14.434388 13.571034 -23.368838 1.352841 3.284745 33.872064 -6.338649 -24.874594 -28.006773 0.000000 -0.000000 0.000000 7.273823 5.348701 13.851001 3.675488 1.307391 2.588711 1.752404 3.731688 -10.685586 -5.714464 1.713580 -6.654338 2.907843 0.786293 -12.654042 -17.517081 5.423262 -4.241035 -34.299165 1.377005 -1.952039 4.658319 -12.898300 -10.799964 -34.034606 3.228363 0.241956 13.635746 4.736810 -1.344405 30.778953 13.960105 0.396659 -2.590632 15.959430 8.649364 14.280901 -3.399322 1.257752 
0.521505 0.262023 0.944479 -95.715094 5.114007 105.394395 8.132688 1.534782 -57.805407 12.225009 11.420134 58.818949 11.741136 36.748173 -20.171128 0.000000 -0.000000 0.000000 13.936651 14.430301 -20.892332 -1.336304 6.046747 28.892153 -3.655453 -21.458736 -27.755665 0.000000 -0.000000 0.000000 5.771139 7.742302 14.882727 2.011285 2.018797 -3.159031 1.585047 3.886177 -9.637683 -5.144370 3.296737 -7.788286 2.446847 1.247475 -11.260899 -16.494312 9.734012 -6.790803 -41.967469 9.038148 2.970051 4.916356 -12.096454 -14.083952 -38.654729 -5.628424 -13.683495 13.767783 5.008051 -2.663547 36.485887 18.118413 9.058616 0.295759 30.388224 9.624247 17.314080 2.244462 -11.408376 
0.476969 0.258633 0.963910 -100.058008 4.380762 107.602950 6.557933 1.752530 -61.091191 11.846620 16.266192 47.314947 10.770249 28.774726 -18.841587 0.000000 -0.000000 0.000000 11.425787 13.874244 -14.250299 -3.354540 6.431729 16.331328 -1.181906 -16.356801 -24.822647 0.000000 -0.000000 0.000000 4.962319 10.234183 12.765055 -0.419230 2.232992 -4.054774 -0.081567 5.041224 -9.427068 -4.431340 4.174914 -7.809688 2.809424 0.328607 -12.219155 -16.195191 12.797568 -6.785774 -45.371670 13.187822 5.344198 4.827081 -12.954795 -18.803720 -46.080006 -9.252486 -18.873372 12.705253 4.965210 -2.137333 43.056586 18.705679 14.613479 1.523001 47.611989 7.439062 24.966957 7.367564 -21.031118 
0.427099 0.259296 0.983942 -106.228199 2.661642 109.261725 6.374322 3.535380 -61.435492 6.190210 19.044115 36.617639 9.375862 23.406576 -16.046028 0.000000 -0.000000 0.000000 8.134874 9.940852 -6.801914 -5.609799 8.235751 2.784108 0.737268 -10.542187 -18.813923 0.000000 -0.000000 0.000000 0.556354 14.331340 8.473508 -2.387024 3.078863 -2.476724 -1.692710 6.021723 -10.200001 -1.432234 4.302282 -8.196427 3.671481 -2.066579 -12.250331 -15.012039 15.050005 -5.199905 -44.423138 15.353531 7.766658 2.188008 -17.575155 -19.184194 -53.108519 -11.417973 -21.844658 12.490242 5.246619 -0.671831 47.646876 17.153862 18.544422 1.323330 64.776003 2.743490 32.936087 11.948238 -29.689021 
0.377627 0.265964 0.999847 -111.322910 2.629871 109.017350 8.407231 6.674876 -60.492903 2.026267 19.070817 34.095014 6.728013 19.322025 -13.494529 0.000000 -0.000000 0.000000 7.278825 4.949988 -1.975209 -6.680959 8.319810 -1.581704 2.900128 -6.692625 -13.187547 0.000000 -0.000000 0.000000 -4.133920 17.930524 2.688910 -3.131970 4.019473 0.258333 -1.417757 6.203961 -10.276536 1.872729 5.110066 -6.563587 6.123996 -4.364676 -11.422656 -16.653304 12.452927 -4.413574 -38.709883 17.420367 7.512582 -2.210280 -19.813469 -19.840912 -55.774813 -13.325711 -20.115094 13.912379 9.835306 2.591085 45.074613 14.639499 15.946523 14.809308 77.423637 5.251207 39.156500 20.010126 -35.524985 
0.326073 0.269384 1.010677 -114.403158 1.146818 105.071195 9.195603 6.349244 -54.718080 2.292130 21.513317 36.983807 5.328564 17.782830 -12.974129 0.000000 -0.000000 0.000000 5.067821 2.190779 1.973421 -6.606420 5.569042 3.812653 3.683563 -5.776271 -8.574491 0.000000 -0.000000 0.000000 -7.105447 19.508668 1.751840 -4.472362 4.603550 4.779810 -1.658355 5.799321 -12.098838 5.141813 4.755588 -5.132872 9.305405 -4.468042 -10.451043 -22.016888 8.461134 -5.884163 -28.998856 16.590715 8.398280 -4.485963 -19.231983 -27.442696 -61.315882 -9.444812 -13.524732 17.548259 13.411086 3.707446 39.297721 12.442971 13.070946 35.458766 79.096957 6.504222 56.352149 23.922130 -34.108089 
0.275622 0.269022 1.016129 -113.136277 0.260784 101.525969 9.166104 2.705565 -48.611558 2.129884 22.581278 41.105702 7.026155 21.095244 -10.862925 0.000000 -0.000000 0.000000 5.292287 2.107907 0.131994 -6.410527 1.998333 18.634940 3.604635 -12.735736 -1.061978 0.000000 -0.000000 0.000000 -8.856914 18.359735 1.074356 -4.680028 4.189393 7.556047 -1.648206 5.481465 -11.306031 7.209314 0.874549 -6.206604 13.417363 -1.677495 -7.882712 -27.833916 2.754643 -4.820315 -21.082289 13.730657 7.966040 -3.848952 -22.570926 -35.856904 -64.082203 -4.862927 -14.604033 21.687638 13.507574 4.427195 32.973382 8.684457 6.905193 34.897875 73.921393 -4.694095 67.576841 18.826462 -32.423742 
0.227819 0.264976 1.018347 -105.946123 -0.612753 98.974467 6.109248 -4.903805 -42.200632 -0.374355 18.764198 41.980522 9.751490 22.207566 -6.600582 0.000000 -0.000000 0.000000 5.590761 3.999266 -7.788511 -5.763344 -4.245693 41.131208 1.467316 -17.623238 19.387170 0.000000 -0.000000 0.000000 -11.617494 14.315174 0.363223 -2.475206 2.342915 11.485579 -1.087718 4.376302 -11.864206 7.367166 -6.250679 -5.781654 17.948565 2.813544 -5.313524 -31.988693 -3.282815 -0.461559 -17.027467 8.108474 9.578089 0.153324 -31.962373 -44.806925 -61.864078 -7.709062 -23.608961 23.394506 11.306911 4.464444 25.769981 4.920311 2.256722 21.862671 65.325115 -19.730150 67.693063 12.981872 -33.180179 
0.182120 0.260571 1.011156 -96.308660 0.679747 95.703672 2.038121 -9.662305 -31.175912 -6.008308 6.231707 35.430150 13.359727 26.986545 -16.655220 0.000000 -0.000000 0.000000 5.320255 5.795432 -18.941475 7.234012 -8.282720 66.917773 8.069379 -8.477903 45.754089 0.000000 -0.000000 0.000000 -12.747391 9.792910 3.087889 1.855786 -0.264282 12.356842 0.511836 2.683756 -12.400608 4.621535 -10.919363 1.414637 20.837827 6.775670 -7.435779 -34.754298 -10.232871 5.332327 -13.457665 -0.237638 2.777201 -0.615757 -43.363735 -46.306257 -61.724425 -6.818790 -22.652595 22.181468 11.413597 6.829375 16.278092 -2.265125 -8.198014 17.491227 57.941322 -26.302501 72.117215 9.045392 -29.745890 
0.145035 0.256793 0.991220 -85.214803 3.196615 93.823611 -0.460684 -11.534126 -25.048126 -7.583852 -4.243984 34.226785 16.407665 32.655440 -26.900998 0.000000 -0.000000 0.000000 1.594285 1.414922 -33.950216 11.516324 -20.341662 90.223147 15.012843 -5.911409 52.184115 0.000000 -0.000000 0.000000 -11.061335 4.773711 8.637828 5.282593 -3.621377 8.549871 2.706203 0.011292 -10.120794 0.940630 -14.126945 5.603570 22.573146 11.133834 -7.617004 -33.939266 -19.019894 8.049533 -8.861869 -10.481174 -1.381772 -1.314350 -53.893495 -43.263418 -61.714578 -7.138174 -23.600440 15.764759 12.918438 2.695129 7.921566 -10.089690 -12.359059 12.869719 53.835068 -31.092003 74.690482 8.265702 -30.887146 
0.118289 0.260201 0.973809 -75.056756 4.987713 93.847384 0.027705 -14.364576 -24.222867 -8.852703 -8.756092 35.604488 16.432982 33.945024 -28.383593 0.000000 -0.000000 0.000000 -4.249113 -5.973699 -51.318314 7.712993 -24.445727 107.854188 8.547950 -7.551806 55.970573 0.000000 -0.000000 0.000000 -8.061373 -0.124283 15.077403 7.590042 -6.397454 2.714547 4.186978 -3.649741 -5.067480 0.231794 -14.642609 0.900699 21.475518 14.940963 -6.607855 -24.497170 -30.301210 9.112869 -1.721644 -16.688438 -7.376658 3.130315 -65.380930 -43.606705 -60.000749 -9.875356 -30.053951 4.164674 13.793287 -5.422926 3.047759 -13.580609 -16.162165 15.055125 46.837684 -25.852244 76.696948 5.072465 -32.499016 
0.085097 0.264931 0.994033 -68.245642 7.370119 95.492513 2.581117 -12.427081 -20.721287 -10.057489 -16.098531 30.100760 16.137719 32.082328 -23.959730 0.000000 -0.000000 0.000000 -8.967558 -11.403466 -66.768254 7.172080 -22.658443 113.304240 4.189481 -7.270494 54.773521 0.000000 -0.000000 0.000000 -5.201165 -4.728128 17.089933 10.927634 -8.496125 7.128036 6.451891 -4.984252 -10.114825 -1.302562 -11.687383 1.081289 17.097981 12.221228 -10.944698 -11.944140 -35.933813 7.219307 4.512624 -18.572762 -12.312022 9.912617 -74.031122 -43.117133 -61.127634 -11.260403 -28.657776 -5.750083 15.283939 -6.786085 1.114208 -16.399220 -13.770484 14.246991 40.081266 -18.495006 77.385280 4.906872 -32.138703 
0.049555 0.266866 1.050178 -67.475609 10.095683 95.462640 6.407203 -4.776946 -11.000253 -5.657718 -19.003023 14.286171 11.329551 24.185740 -14.103989 0.000000 -0.000000 0.000000 -12.246748 -11.364700 -74.861050 5.945090 -17.117833 106.896870 -1.454677 -10.321523 49.373194 0.000000 -0.000000 0.000000 -2.018700 -9.056571 21.274094 11.504561 -7.119201 3.585580 7.956647 -3.435220 -9.419117 -2.854363 -5.305312 4.524766 13.275460 8.364077 -14.581095 -0.596465 -38.900697 4.403117 6.066090 -18.500852 -12.352917 -2.715014 -73.656881 -22.304815 -57.702377 -12.149311 -24.627908 -11.237507 18.408752 -5.322148 3.064748 -17.645439 -12.969010 11.901279 24.515890 -11.414731 72.897020 -0.699795 -25.405640 
0.012411 0.259136 1.123191 -66.784426 11.072499 97.188235 10.505073 5.389591 -3.470298 -3.517356 -10.055050 -3.731269 -0.596809 13.784180 11.193103 0.000000 -0.000000 0.000000 -16.233787 -14.227162 -77.994164 5.098941 -12.425203 91.539532 -2.594215 -10.384959 45.150976 0.000000 -0.000000 0.000000 3.051897 -12.543921 22.780751 11.227279 -5.234010 -0.804755 7.232311 -2.539473 -9.468844 -4.787965 -2.061711 6.889026 8.702395 3.835752 -15.311424 4.533435 -37.740972 3.054058 6.269782 -23.064942 -12.023362 -20.385418 -62.899354 10.295964 -45.911001 -7.580098 -14.241311 -9.965933 15.738133 -2.216234 3.925761 -13.033501 -14.345055 5.796381 6.976055 -5.774217 53.497258 -14.669704 -8.257078 
-0.029913 0.245278 1.189847 -62.945506 10.362921 102.321129 14.630760 15.199102 -1.777687 -6.223058 -1.204262 -6.475625 -18.658718 7.776190 24.641219 0.000000 -0.000000 0.000000 -21.534908 -22.413216 -78.192788 4.635144 -11.565841 71.040268 0.880640 -7.686129 48.548434 0.000000 -0.000000 0.000000 9.725481 -15.515269 16.564899 11.593733 -5.678824 -1.881547 5.467725 -2.056820 -12.460650 -9.142777 0.486950 13.315700 4.887071 0.230153 -16.995540 0.131393 -39.149198 8.575998 9.648831 -24.727106 -9.733082 -24.308227 -47.115320 37.571226 -35.469647 1.468156 7.680387 -5.126928 14.060232 3.216255 -0.728393 -11.657612 -18.320252 0.484219 -8.687737 0.978400 32.777539 -24.208065 14.535909 
